<?xml version="1.0" encoding="us-ascii" standalone="no"?><svg xmlns="http://www.w3.org/2000/svg" xmlns:xlink="http://www.w3.org/1999/xlink" contentStyleType="text/css" height="316px" preserveAspectRatio="none" style="width:211px;height:316px;background:#DDDDDD;" version="1.1" viewBox="0 0 211 316" width="211px" zoomAndPan="magnify"><defs/><g><rect fill="#DDDDDD" height="316" style="stroke:none;stroke-width:1.0;" width="211" x="0" y="0"/><!--entity kwil_db--><g id="elem_kwil_db"><path d="M6,264.47 C6,254.47 29.5,254.47 29.5,254.47 C29.5,254.47 53,254.47 53,264.47 L53,289.9583 C53,299.9583 29.5,299.9583 29.5,299.9583 C29.5,299.9583 6,299.9583 6,289.9583 L6,264.47 " fill="#98DDDE" style="stroke:#454645;stroke-width:0.5;"/><path d="M6,264.47 C6,274.47 29.5,274.47 29.5,274.47 C29.5,274.47 53,274.47 53,264.47 " fill="none" style="stroke:#454645;stroke-width:0.5;"/><text fill="#454645" font-family="sans-serif" font-size="14" lengthAdjust="spacing" textLength="27" x="16" y="292.0052">kwil</text></g><!--entity Metamask--><g id="elem_Metamask"><rect fill="#F1F1F1" height="46.4883" rx="3.5" ry="3.5" style="stroke:#181818;stroke-width:0.5;" width="109" x="33" y="7"/><rect fill="#F1F1F1" height="10" style="stroke:#181818;stroke-width:0.5;" width="15" x="122" y="12"/><rect fill="#F1F1F1" height="2" style="stroke:#181818;stroke-width:0.5;" width="4" x="120" y="14"/><rect fill="#F1F1F1" height="2" style="stroke:#181818;stroke-width:0.5;" width="4" x="120" y="18"/><text fill="#000000" font-family="sans-serif" font-size="14" lengthAdjust="spacing" textLength="69" x="48" y="40.5352">Metamask</text></g><!--entity Client--><g id="elem_Client"><rect fill="#F1F1F1" height="46.4883" rx="3.5" ry="3.5" style="stroke:#181818;stroke-width:0.5;" width="80" x="47.5" y="130.48"/><rect fill="#F1F1F1" height="10" style="stroke:#181818;stroke-width:0.5;" width="15" x="107.5" y="135.48"/><rect fill="#F1F1F1" height="2" style="stroke:#181818;stroke-width:0.5;" width="4" x="105.5" y="137.48"/><rect fill="#F1F1F1" height="2" style="stroke:#181818;stroke-width:0.5;" width="4" x="105.5" y="141.48"/><text fill="#000000" font-family="sans-serif" font-size="14" lengthAdjust="spacing" textLength="40" x="62.5" y="164.0152">Client</text></g><!--entity Recognizer--><g id="elem_Recognizer"><rect fill="#F1F1F1" height="46.4883" rx="3.5" ry="3.5" style="stroke:#181818;stroke-width:0.5;" width="117" x="88" y="253.97"/><rect fill="#F1F1F1" height="10" style="stroke:#181818;stroke-width:0.5;" width="15" x="185" y="258.97"/><rect fill="#F1F1F1" height="2" style="stroke:#181818;stroke-width:0.5;" width="4" x="183" y="260.97"/><rect fill="#F1F1F1" height="2" style="stroke:#181818;stroke-width:0.5;" width="4" x="183" y="264.97"/><text fill="#000000" font-family="sans-serif" font-size="14" lengthAdjust="spacing" textLength="77" x="103" y="287.5052">Recognizer</text></g><!--link Metamask to Client--><g id="link_Metamask_Client"><path d="M87.5,53.81 C87.5,73.75 87.5,102.93 87.5,124.44 " fill="none" id="Metamask-to-Client" style="stroke:#454645;stroke-width:1.0;"/><polygon fill="#454645" points="87.5,129.28,91.5,120.28,87.5,124.28,83.5,120.28,87.5,129.28" style="stroke:#454645;stroke-width:1.0;"/><text fill="#000000" font-family="sans-serif" font-size="13" lengthAdjust="spacing" textLength="28" x="88.5" y="97.0484">auth</text></g><!--link Client to Recognizer--><g id="link_Client_Recognizer"><path d="M98.46,177.29 C108.23,197.41 122.56,226.92 133.03,248.47 " fill="none" id="Client-to-Recognizer" style="stroke:#454645;stroke-width:1.0;"/><polygon fill="#454645" points="135.6,252.77,135.2659,242.9268,133.4155,248.2725,128.0698,246.422,135.6,252.77" style="stroke:#454645;stroke-width:1.0;"/><text fill="#000000" font-family="sans-serif" font-size="13" lengthAdjust="spacing" textLength="61" x="121.5" y="220.5384">recognize</text></g><!--link Client to kwil_db--><g id="link_Client_kwil_db"><path d="M60.49,177.27 C52.11,185.71 43.71,195.95 38.5,206.97 C32.48,219.71 30.07,235.15 29.24,248.22 " fill="none" id="Client-to-kwil_db" style="stroke:#454645;stroke-width:1.0;"/><polygon fill="#454645" points="28.96,253.03,33.3668,244.2221,29.1883,248.0352,25.3752,243.8567,28.96,253.03" style="stroke:#454645;stroke-width:1.0;"/><text fill="#000000" font-family="sans-serif" font-size="13" lengthAdjust="spacing" textLength="63" x="39.5" y="220.5384">store data</text></g><!--SRC=[LOqx2e1044FxEKMqzm8MDjOsjY8owg2BduNT4T7J-q45kppoI0BjPHAetOXQLgxP2y9XDMC8zhX2rTPKPA8yiHzAH5628XsDp5eYvaLxqCTtcKjZkzdiuau1xgM_zIoVWbVh1DSv7G00]--></g></svg>